DataRate=2000.000000
DataType=double
version=3
OpenSimVersion=4.3-2021-08-27-4bc7ad9
endheader
time	f1_1	f1_2	f1_3	p1_1	p1_2	p1_3	m1_1	m1_2	m1_3	f2_1	f2_2	f2_3	p2_1	p2_2	p2_3	m2_1	m2_2	m2_3	f3_1	f3_2	f3_3	p3_1	p3_2	p3_3	m3_1	m3_2	m3_3	f4_1	f4_2	f4_3	p4_1	p4_2	p4_3	m4_1	m4_2	m4_3
0	-0	0	0	-300	2252	0	0	0	0	3.022196054458618	-33.42390441894531	366.0245971679688	-300	1351	0	-97837.0078125	32895.62890625	-1627.499633789062	3.347571885169419	42.01778800651313	407.5522155761719	-300	450.0000000000005	0	112807.5228208248	28215.77199673666	628.6243286132812	-0	0	0	305	450.0000000000006	0	0	0	0
0.0005	-0	0	0	-300	2252	0	0	0	0	2.976809024810791	-33.41296005249023	366.9539794921875	-300	1351	0	-98056.640625	32831.453125	-1586.9765625	3.136096994463552	41.79947287737948	408.3537902832031	-300	450.0000000000005	0	112904.8040710211	28206.78957698781	619.9373168945312	-0	0	0	305	450.0000000000006	0	0	0	0
0.001	-0	0	0	-300	2252	0	0	0	0	3.134950876235962	-33.35664367675781	367.083984375	-300	1351	0	-97926.796875	32718.794921875	-1671.02001953125	3.436326062431671	42.01006706118729	406.8844299316406	-300	450.0000000000005	0	112812.3900135139	27978.34426246803	796.1181640625	-0	0	0	305	450.0000000000006	0	0	0	0
0.0015	-0	0	0	-300	2252	0	0	0	0	2.61992335319519	-33.52396011352539	368.1434326171875	-300	1351	0	-97877.6953125	32762.52734375	-1708.250244140625	3.232540411930646	41.67232139022951	407.9742736816406	-300	450.0000000000005	0	112992.5384507737	27989.3364539053	663.499755859375	-0	0	0	305	450.0000000000006	0	0	0	0
0.002	-0	0	0	-300	2252	0	0	0	0	2.865673303604126	-33.51474761962891	368.9431457519531	-300	1351	0	-97877.359375	32829.1484375	-1623.481811523438	3.605994270289021	41.54220207466113	406.093994140625	-300	450.0000000000005	0	113153.0931386031	27974.26614491433	685.0523681640625	-0	0	0	305	450.0000000000006	0	0	0	0
0.0025	-0	0	0	-300	2252	0	0	0	0	2.932983636856079	-32.93293380737305	368.056884765625	-300	1351	0	-97867.9296875	32642.033203125	-1758.462036132812	3.251040497376291	41.86447913599516	406.3817138671875	-300	450.0000000000005	0	113044.8353244037	28052.01809567328	649.5578002929688	-0	0	0	305	450.0000000000006	0	0	0	0
0.003	-0	0	0	-300	2252	0	0	0	0	2.843780517578125	-33.22375106811523	368.2799377441406	-300	1351	0	-98054.1796875	32462.2265625	-1784.879272460938	2.935262242083559	41.85670477606627	406.2477111816406	-300	450.0000000000005	0	112949.2571983096	28102.08059358436	831.30517578125	-0	0	0	305	450.0000000000006	0	0	0	0
0.0035	-0	0	0	-300	2252	0	0	0	0	2.765525817871094	-33.11113739013672	367.8770751953125	-300	1351	0	-97988.328125	32593.154296875	-1612.432373046875	3.03176573984419	41.78392798374183	408.1275634765625	-300	450.0000000000005	0	112596.9134529629	27889.17042963364	747.4498291015625	-0	0	0	305	450.0000000000006	0	0	0	0
0.004	-0	0	0	-300	2252	0	0	0	0	2.732701778411865	-33.41297149658203	369.3829040527344	-300	1351	0	-97956.7578125	32394.50390625	-1678.337158203125	3.193587341519552	41.87999732321605	407.563720703125	-300	450.0000000000005	0	112716.4759519957	27933.42433849676	722.9091186523438	-0	0	0	305	450.0000000000006	0	0	0	0
0.004500000000000001	-0	0	0	-300	2252	0	0	0	0	2.585366487503052	-33.31292343139648	368.8133239746094	-300	1351	0	-97620.578125	32448.029296875	-1759.410278320312	3.201372896359784	42.05662543617917	405.2916564941406	-300	450.0000000000005	0	112670.2025147156	27923.35988436043	750.0065307617188	-0	0	0	305	450.0000000000006	0	0	0	0
0.005	-0	0	0	-300	2252	0	0	0	0	3.2006516456604	-33.20017623901367	367.2567749023438	-300	1351	0	-97832.3828125	32376.033203125	-1637.450927734375	3.274519951155639	42.2255097151216	407.9745788574219	-300	450.0000000000005	0	112730.0931419156	27822.70168254438	734.3916625976562	-0	0	0	305	450.0000000000006	0	0	0	0
0.0055	-0	0	0	-300	2252	0	0	0	0	3.078690052032471	-33.48030090332031	369.4694519042969	-300	1351	0	-98153.4609375	32470.279296875	-1865.069946289062	3.178045540798402	42.28287894519082	406.0939331054688	-300	450.0000000000005	0	112628.8040770801	27929.56300845563	579.8919677734375	-0	0	0	305	450.0000000000006	0	0	0	0
